<svg width="16" height="20" viewBox="0 0 16 20" fill="none" xmlns="http://www.w3.org/2000/svg">
<path d="M0.800049 2.80002V17.2C0.800049 17.8365 1.05291 18.447 1.50299 18.8971C1.95308 19.3472 2.56353 19.6 3.20005 19.6H14.6C14.7592 19.6 14.9118 19.5368 15.0243 19.4243C15.1368 19.3118 15.2 19.1592 15.2 19C15.2 18.8409 15.1368 18.6883 15.0243 18.5758C14.9118 18.4632 14.7592 18.4 14.6 18.4H3.20005C2.88179 18.4 2.57656 18.2736 2.35152 18.0486C2.12648 17.8235 2.00005 17.5183 2.00005 17.2H14C14.3183 17.2 14.6235 17.0736 14.8486 16.8486C15.0736 16.6235 15.2 16.3183 15.2 16V2.80002C15.2 2.1635 14.9472 1.55306 14.4971 1.10297C14.047 0.652881 13.4366 0.400024 12.8 0.400024H3.20005C2.56353 0.400024 1.95308 0.652881 1.50299 1.10297C1.05291 1.55306 0.800049 2.1635 0.800049 2.80002ZM12.8 1.60002C13.1183 1.60002 13.4235 1.72645 13.6486 1.9515C13.8736 2.17654 14 2.48176 14 2.80002V16H2.00005V2.80002C2.00005 2.48176 2.12648 2.17654 2.35152 1.9515C2.57656 1.72645 2.88179 1.60002 3.20005 1.60002H12.8ZM8.90005 4.90002C8.90005 4.66133 8.80523 4.43241 8.63644 4.26363C8.46766 4.09485 8.23874 4.00002 8.00005 4.00002C7.76135 4.00002 7.53244 4.09485 7.36365 4.26363C7.19487 4.43241 7.10005 4.66133 7.10005 4.90002C7.10005 5.13872 7.19487 5.36764 7.36365 5.53642C7.53244 5.7052 7.76135 5.80002 8.00005 5.80002C8.23874 5.80002 8.46766 5.7052 8.63644 5.53642C8.80523 5.36764 8.90005 5.13872 8.90005 4.90002ZM8.60005 13C8.60005 13.1592 8.53683 13.3118 8.42431 13.4243C8.31179 13.5368 8.15918 13.6 8.00005 13.6C7.84092 13.6 7.68831 13.5368 7.57578 13.4243C7.46326 13.3118 7.40005 13.1592 7.40005 13V8.20002C7.40005 8.04089 7.46326 7.88828 7.57578 7.77576C7.68831 7.66324 7.84092 7.60002 8.00005 7.60002C8.15918 7.60002 8.31179 7.66324 8.42431 7.77576C8.53683 7.88828 8.60005 8.04089 8.60005 8.20002V13Z" fill="black"/>
</svg>
