<svg width="20" height="21" viewBox="0 0 20 21" fill="none" xmlns="http://www.w3.org/2000/svg">
<path d="M18.25 2.75H10.75V1.25C10.75 1.05109 10.671 0.860322 10.5303 0.71967C10.3897 0.579018 10.1989 0.5 10 0.5C9.80109 0.5 9.61032 0.579018 9.46967 0.71967C9.32902 0.860322 9.25 1.05109 9.25 1.25V2.75H1.75C1.35218 2.75 0.970644 2.90804 0.68934 3.18934C0.408035 3.47064 0.25 3.85218 0.25 4.25V15.5C0.25 15.8978 0.408035 16.2794 0.68934 16.5607C0.970644 16.842 1.35218 17 1.75 17H5.44L3.41406 19.5313C3.28974 19.6867 3.23225 19.8851 3.25422 20.0829C3.2762 20.2807 3.37585 20.4616 3.53125 20.5859C3.68665 20.7103 3.88507 20.7678 4.08286 20.7458C4.28066 20.7238 4.46162 20.6242 4.58594 20.4688L7.36 17H12.64L15.4141 20.4688C15.4756 20.5457 15.5517 20.6098 15.638 20.6573C15.7244 20.7048 15.8192 20.7349 15.9171 20.7458C16.0151 20.7567 16.1142 20.7481 16.2088 20.7207C16.3035 20.6933 16.3918 20.6475 16.4688 20.5859C16.5457 20.5244 16.6098 20.4483 16.6573 20.362C16.7048 20.2756 16.7349 20.1808 16.7458 20.0829C16.7567 19.9849 16.7481 19.8858 16.7207 19.7912C16.6933 19.6965 16.6475 19.6082 16.5859 19.5313L14.56 17H18.25C18.6478 17 19.0294 16.842 19.3107 16.5607C19.592 16.2794 19.75 15.8978 19.75 15.5V4.25C19.75 3.85218 19.592 3.47064 19.3107 3.18934C19.0294 2.90804 18.6478 2.75 18.25 2.75ZM18.25 15.5H1.75V4.25H18.25V15.5Z" fill="black"/>
</svg>
